# Blender v3.2.0 OBJ File: ''
# www.blender.org
mtllib WackyCube.mtl
o Cube
v 1.000000 1.000000 -1.000000
v 0.250000 0.819165 -0.250000
v 1.000000 -1.000000 -1.000000
v 0.750000 -0.680835 0.250000
v 0.250000 -0.680835 0.750000
v -0.750000 0.319165 -0.250000
v 0.750000 -0.180835 0.250000
v -0.750000 0.819165 -0.250000
v -0.750000 -0.180835 0.750000
v -0.750000 0.319165 -0.750000
v -0.750000 0.819165 -0.750000
v 0.250000 -0.180835 0.750000
v 1.000000 1.000000 1.000000
v -0.750000 0.319165 0.750000
v 0.250000 0.819165 -0.750000
v 0.750000 -0.680835 0.750000
v 1.000000 -1.000000 1.000000
v 0.750000 -0.180835 0.750000
v -1.000000 1.000000 -1.000000
v -0.250000 -0.180835 0.750000
v 0.750000 0.819165 -0.250000
v -0.250000 0.319165 0.750000
v -1.000000 -1.000000 -1.000000
v -1.000000 1.000000 1.000000
v 0.750000 0.819165 -0.750000
v -1.000000 -1.000000 1.000000
v 0.250000 1.000000 -0.250000
v 0.750000 1.000000 -0.750000
v 0.250000 1.000000 -0.750000
v 0.750000 1.000000 -0.250000
v -0.250000 0.319165 1.000000
v -0.750000 -0.180835 1.000000
v -0.750000 0.319165 1.000000
v -0.250000 -0.180835 1.000000
v 0.250000 -0.680835 1.000000
v 0.250000 -0.180835 1.000000
v 0.750000 -0.180835 1.000000
v 0.750000 -0.680835 1.000000
v 1.000000 -0.680835 0.750000
v 1.000000 -0.180835 0.750000
v 1.000000 -0.180835 0.250000
v 1.000000 -0.680835 0.250000
v -1.000000 0.319165 -0.250000
v -1.000000 0.819165 -0.250000
v -1.000000 0.819165 -0.750000
v -1.000000 0.319165 -0.750000
vt 0.792499 0.044165
vt 0.710832 0.044165
vt 0.669998 0.003331
vt 0.996669 0.003331
vt 0.996669 0.330002
vt 0.669998 0.330002
vt 0.710832 0.125833
vt 0.792499 0.125833
vt 0.207501 0.137130
vt 0.289168 0.137130
vt 0.330002 0.330002
vt 0.003331 0.330002
vt 0.044165 0.218798
vt 0.125833 0.218798
vt 0.125833 0.137130
vt 0.044165 0.137130
vt 0.003331 0.003331
vt 0.330002 0.003331
vt 0.289168 0.055462
vt 0.207501 0.055462
vt 0.044165 0.633799
vt 0.003331 0.663335
vt 0.003331 0.336664
vt 0.330002 0.336664
vt 0.330002 0.663335
vt 0.125833 0.633799
vt 0.125833 0.552131
vt 0.044165 0.552131
vt 0.336664 0.003331
vt 0.663335 0.003331
vt 0.663335 0.330002
vt 0.336664 0.330002
vt 0.336664 0.663335
vt 0.336664 0.336664
vt 0.377498 0.388795
vt 0.377498 0.470463
vt 0.459166 0.388795
vt 0.663335 0.336664
vt 0.663335 0.663335
vt 0.459166 0.470463
vt 0.330002 0.669998
vt 0.330002 0.996669
vt 0.003331 0.996669
vt 0.003331 0.669998
vt 0.805824 0.336665
vt 0.835361 0.336665
vt 0.835361 0.418332
vt 0.805824 0.418332
vt 0.717494 0.724156
vt 0.747031 0.724156
vt 0.747031 0.805824
vt 0.717494 0.805824
vt 0.835361 0.513325
vt 0.835361 0.594993
vt 0.805824 0.594993
vt 0.805824 0.513325
vt 0.835361 0.424995
vt 0.835361 0.506662
vt 0.805824 0.506662
vt 0.805824 0.424995
vt 0.506662 0.751666
vt 0.424995 0.751666
vt 0.424995 0.669998
vt 0.506662 0.669998
vt 0.751666 0.506662
vt 0.669998 0.506662
vt 0.669998 0.465829
vt 0.751666 0.465829
vt 0.751666 0.588330
vt 0.669998 0.588330
vt 0.472491 0.839996
vt 0.472491 0.758328
vt 0.513325 0.758328
vt 0.513325 0.839996
vt 0.519987 0.758328
vt 0.560821 0.758328
vt 0.560821 0.839996
vt 0.519987 0.839996
vt 0.669998 0.724156
vt 0.710832 0.724156
vt 0.710832 0.805824
vt 0.669998 0.805824
vt 0.799162 0.336664
vt 0.799162 0.418332
vt 0.758328 0.418332
vt 0.758328 0.336664
vt 0.418332 0.669998
vt 0.418332 0.751666
vt 0.336665 0.751666
vt 0.336665 0.669998
vt 0.418332 0.792499
vt 0.336665 0.792499
vt 0.758328 0.601655
vt 0.799162 0.601655
vt 0.799162 0.683323
vt 0.758328 0.683323
vt 0.758328 0.689985
vt 0.799162 0.689985
vt 0.799162 0.771653
vt 0.758328 0.771653
vt 0.669998 0.459166
vt 0.669998 0.377498
vt 0.751666 0.377498
vt 0.751666 0.459166
vt 0.465829 0.839996
vt 0.424995 0.839996
vt 0.424995 0.758328
vt 0.465829 0.758328
vt 0.751666 0.336665
vt 0.669998 0.336665
vt 0.513325 0.669998
vt 0.554159 0.669998
vt 0.554159 0.751666
vt 0.513325 0.751666
vt 0.799162 0.594993
vt 0.758328 0.594993
vt 0.758328 0.513325
vt 0.799162 0.513325
vt 0.751666 0.635826
vt 0.669998 0.635826
vt 0.669998 0.594993
vt 0.751666 0.594993
vt 0.751666 0.717494
vt 0.669998 0.717494
vt 0.758328 0.506662
vt 0.758328 0.424995
vt 0.799162 0.424995
vt 0.799162 0.506662
vt 0.560821 0.751666
vt 0.560821 0.669998
vt 0.601655 0.669998
vt 0.601655 0.751666
vt 0.608317 0.669998
vt 0.649151 0.669998
vt 0.649151 0.751665
vt 0.608317 0.751665
vn 0.0000 1.0000 0.0000
vn 0.0000 0.0000 1.0000
vn -1.0000 0.0000 0.0000
vn 0.0000 -1.0000 0.0000
vn 1.0000 0.0000 0.0000
vn 0.0000 0.0000 -1.0000
usemtl Material
s off
f 29/1/1 28/2/1 1/3/1 19/4/1 24/5/1 13/6/1 30/7/1 27/8/1
f 13/6/1 1/3/1 28/2/1 30/7/1
f 36/9/2 37/10/2 13/11/2 24/12/2 33/13/2 31/14/2 34/15/2 32/16/2 26/17/2 17/18/2 38/19/2 35/20/2
f 38/19/2 17/18/2 13/11/2 37/10/2
f 33/13/2 24/12/2 26/17/2 32/16/2
f 45/21/3 19/22/3 23/23/3 26/24/3 24/25/3 44/26/3 43/27/3 46/28/3
f 24/25/3 19/22/3 45/21/3 44/26/3
f 23/29/4 3/30/4 17/31/4 26/32/4
f 13/33/5 17/34/5 39/35/5 40/36/5
f 42/37/5 39/35/5 17/34/5 3/38/5 1/39/5 13/33/5 40/36/5 41/40/5
f 23/41/6 19/42/6 1/43/6 3/44/6
f 27/45/5 2/46/5 15/47/5 29/48/5
f 29/49/2 15/50/2 25/51/2 28/52/2
f 25/53/3 21/54/3 30/55/3 28/56/3
f 21/57/6 2/58/6 27/59/6 30/60/6
f 15/61/1 2/62/1 21/63/1 25/64/1
f 9/65/5 14/66/5 33/67/5 32/68/5
f 9/65/2 20/69/2 22/70/2 14/66/2
f 22/71/3 20/72/3 34/73/3 31/74/3
f 34/75/1 20/76/1 9/77/1 32/78/1
f 33/79/4 14/80/4 22/81/4 31/82/4
f 5/83/5 12/84/5 36/85/5 35/86/5
f 5/87/2 16/88/2 18/89/2 12/90/2
f 18/89/3 16/88/3 38/91/3 37/92/3
f 38/93/1 16/94/1 5/95/1 35/96/1
f 36/97/4 12/98/4 18/99/4 37/100/4
f 7/101/5 18/102/5 16/103/5 4/104/5
f 41/105/2 7/106/2 4/107/2 42/108/2
f 39/109/6 16/103/6 18/102/6 40/110/6
f 42/111/1 4/112/1 16/113/1 39/114/1
f 40/115/4 18/116/4 7/117/4 41/118/4
f 10/119/2 11/120/2 45/121/2 46/122/2
f 10/119/3 6/123/3 8/124/3 11/120/3
f 8/125/6 6/126/6 43/127/6 44/128/6
f 6/129/1 10/130/1 46/131/1 43/132/1
f 45/133/4 11/134/4 8/135/4 44/136/4
